<svg width="240" height="240" viewBox="0 0 240 240" fill="none" xmlns="http://www.w3.org/2000/svg">
<path d="M222.309 86.6103H210.3C209.442 84.2888 208.498 82.0146 207.459 79.7639L216.013 71.2965C219.484 68.2353 221.656 63.7734 221.656 58.8078C221.656 54.519 220.035 50.6079 217.367 47.6569L217.383 47.6726L192.373 22.6638C189.438 20.0039 185.526 18.3828 181.238 18.3828C176.264 18.3828 171.802 20.5705 168.748 24.0331L168.733 24.0488L160.226 32.5477C157.983 31.5168 155.716 30.5725 153.395 29.7147L153.458 17.7061C153.481 17.3756 153.497 16.99 153.497 16.5965C153.497 7.71985 146.54 0.472162 137.781 0H137.742H102.36C93.5541 0.464293 86.5895 7.71985 86.5895 16.6044C86.5895 16.99 86.6052 17.3756 86.6288 17.7612V17.7061V29.699C84.3073 30.5568 82.033 31.5011 79.7823 32.5398L71.3303 24.0094C68.269 20.5233 63.7991 18.3278 58.8255 18.3278C54.5365 18.3278 50.6253 19.9489 47.6821 22.6166L47.6978 22.6008L22.6803 47.6175C20.0203 50.5528 18.3992 54.4639 18.3992 58.7527C18.3992 63.734 20.5869 68.1959 24.0574 71.2414L24.0732 71.2571L32.5566 79.7482C31.5179 82.0067 30.5735 84.2809 29.7078 86.6103L17.7067 86.5552C17.3761 86.5316 16.9905 86.5158 16.6049 86.5158C7.72797 86.5158 0.472178 93.4802 0 102.239V102.278V137.651C0.464308 146.457 7.72797 153.429 16.6128 153.429C16.9984 153.429 17.384 153.413 17.7617 153.39H17.7067H29.7078C30.5656 155.711 31.51 157.985 32.5488 160.236L24.0181 168.664C20.5319 171.733 18.3441 176.203 18.3441 181.192C18.3441 185.481 19.9652 189.4 22.633 192.351L22.6173 192.335L47.6348 217.344C50.3027 219.996 53.9778 221.633 58.0385 221.633C58.0936 221.633 58.1487 221.633 58.2038 221.633H58.1959C63.3348 221.531 67.9542 219.374 71.2752 215.951L71.2831 215.943L79.7744 207.452C82.033 208.491 84.3152 209.435 86.6446 210.301L86.5895 222.294C86.5659 222.624 86.5501 223.01 86.5501 223.396C86.5501 232.272 93.5148 239.528 102.274 240H102.313H137.695C146.493 239.528 153.458 232.28 153.458 223.404C153.458 223.01 153.442 222.624 153.418 222.247V222.302V210.293C155.748 209.428 158.022 208.483 160.281 207.444L168.693 215.935C172.022 219.359 176.634 221.515 181.757 221.625H181.773H181.788C181.836 221.625 181.899 221.625 181.954 221.625C186.007 221.625 189.682 219.996 192.365 217.368L217.367 192.367C220.003 189.699 221.624 186.032 221.624 181.979C221.624 181.908 221.624 181.837 221.624 181.759C221.522 176.636 219.382 172.04 215.974 168.719L207.467 160.212C208.498 157.97 209.442 155.703 210.3 153.382L222.301 153.437C222.632 153.461 223.009 153.476 223.395 153.476C232.28 153.476 239.536 146.512 240 137.745V137.706V102.333C239.528 93.5274 232.28 86.5631 223.395 86.5631C223.009 86.5631 222.624 86.5788 222.238 86.6024H222.293L222.309 86.6103ZM220.342 133.771L203.328 133.685C203.123 133.685 202.95 133.787 202.745 133.803C202.013 133.874 201.337 134.007 200.691 134.22L200.754 134.204C198.315 134.739 196.308 136.274 195.159 138.351L195.135 138.391C194.758 138.949 194.419 139.587 194.159 140.264L194.136 140.327C194.073 140.515 193.923 140.649 193.868 140.846C192.058 147.173 189.721 152.674 186.801 157.804L186.998 157.427C186.888 157.623 186.896 157.852 186.793 158.056C186.565 158.552 186.376 159.142 186.235 159.748L186.227 159.811C186.046 160.378 185.912 161.039 185.849 161.716V161.755C185.833 161.967 185.818 162.211 185.818 162.455C185.818 164.1 186.298 165.634 187.124 166.925L187.1 166.894C187.454 167.586 187.856 168.176 188.312 168.719L188.304 168.704C188.438 168.853 188.478 169.042 188.619 169.184L200.652 181.232L181.222 200.645L169.291 188.613C169.134 188.448 168.914 188.401 168.748 188.251C168.276 187.858 167.741 187.496 167.174 187.189L167.127 187.165C165.593 186.307 163.751 185.804 161.8 185.804C161.784 185.804 161.768 185.804 161.752 185.804C161.154 185.867 160.611 185.977 160.092 186.118L160.163 186.103C159.36 186.26 158.652 186.496 157.991 186.803L158.046 186.779C157.873 186.866 157.676 186.858 157.503 186.953C152.734 189.675 147.217 192.02 141.425 193.712L140.874 193.846C140.662 193.909 140.52 194.059 140.315 194.137C139.654 194.397 139.08 194.696 138.553 195.05L138.584 195.027C137.994 195.349 137.49 195.695 137.018 196.089L137.034 196.073C136.617 196.482 136.231 196.939 135.893 197.419L135.869 197.45C135.059 198.34 134.484 199.449 134.248 200.685L134.24 200.724C134.051 201.306 133.902 201.983 133.839 202.683V202.723C133.823 202.927 133.721 203.101 133.721 203.313L133.713 220.327H106.24L106.327 203.36C106.327 203.14 106.216 202.951 106.201 202.739C106.138 202.015 105.996 201.346 105.791 200.708L105.807 200.771C105.272 198.308 103.722 196.286 101.628 195.129L101.581 195.105C101.03 194.735 100.401 194.405 99.7318 194.145L99.6688 194.122C99.4799 194.059 99.3383 193.909 99.1415 193.854C92.7986 192.044 87.282 189.699 82.1353 186.772L82.513 186.968C82.332 186.866 82.1195 186.874 81.9385 186.787C81.3719 186.528 80.7109 186.307 80.0184 186.166L79.9554 186.158C79.2314 185.93 78.3972 185.804 77.5316 185.804C75.7924 185.804 74.1791 186.323 72.8334 187.22L72.8649 187.204C72.2668 187.519 71.7552 187.865 71.2831 188.259L71.2988 188.243C71.1336 188.393 70.9211 188.44 70.7637 188.597L58.731 200.63L39.293 181.2L51.3493 169.27C51.5067 169.113 51.5618 168.9 51.7034 168.743C52.1205 168.247 52.4983 167.688 52.8209 167.098L52.8445 167.051C53.1357 166.595 53.4033 166.075 53.6236 165.524L53.6472 165.461C53.9463 164.36 54.1352 163.093 54.1666 161.786V161.763C54.1037 161.11 53.9856 160.519 53.8204 159.945L53.8361 160.016C53.6787 159.276 53.4662 158.623 53.1829 158.009L53.2065 158.064C53.1121 157.867 53.12 157.655 53.0098 157.466C50.279 152.705 47.9339 147.197 46.2577 141.405L46.1239 140.87C46.0688 140.665 45.9114 140.515 45.8406 140.319C45.573 139.642 45.274 139.06 44.912 138.525L44.9356 138.564C44.6208 137.982 44.2745 137.478 43.8889 137.014L43.9046 137.029C43.4954 136.612 43.0469 136.234 42.5747 135.896L42.5432 135.873C42.071 135.471 41.5359 135.109 40.9693 134.802L40.9221 134.779C40.4735 134.574 39.9305 134.393 39.3796 134.259L39.3167 134.244C38.7107 134.039 38.0024 133.889 37.2784 133.826H37.2391C37.0345 133.811 36.8692 133.708 36.6646 133.708L19.6505 133.701V106.221L36.6646 106.307C37.9237 106.292 39.112 106.032 40.2059 105.583L40.143 105.607C40.5679 105.418 40.9221 105.229 41.2605 105.017L41.2211 105.04C41.9294 104.67 42.5432 104.253 43.1019 103.781L43.0862 103.789C43.4246 103.482 43.7315 103.167 44.0148 102.829L44.0306 102.813C44.4713 102.302 44.8647 101.727 45.1874 101.121L45.211 101.066C45.4235 100.696 45.636 100.264 45.8091 99.8151L45.8327 99.7521C45.9114 99.5318 46.0609 99.3586 46.1239 99.1383C47.9339 92.8035 50.2712 87.287 53.1987 82.1483L53.0019 82.5261C53.1121 82.3372 53.1042 82.1169 53.1987 81.928C53.4426 81.4008 53.6472 80.7712 53.7889 80.1259L53.7968 80.063C53.9542 79.3862 54.0486 78.6071 54.0486 77.8045C54.0486 75.3099 53.1593 73.0277 51.6877 71.2414L51.7034 71.2571C51.5697 71.0997 51.5224 70.903 51.3729 70.7614L39.356 58.7291L58.7861 39.2996L70.7322 51.3476C71.165 51.7018 71.6451 52.0323 72.1487 52.3077L72.196 52.3313C72.5265 52.591 72.8963 52.8428 73.282 53.071L73.3292 53.0946C74.5883 53.7871 76.0835 54.2121 77.6653 54.2593H77.6811L77.7204 54.2672C77.8149 54.2672 77.9014 54.1963 77.988 54.1963C79.4518 54.1334 80.8132 53.7557 82.0251 53.134L81.97 53.1576C82.1432 53.071 82.3399 53.1104 82.5209 53.0159C87.282 50.2931 92.7908 47.9402 98.5828 46.264L99.1258 46.1302C99.3226 46.0752 99.4563 45.9256 99.6452 45.8627C100.361 45.5873 100.983 45.2646 101.558 44.879L101.526 44.9026C102.069 44.6036 102.533 44.2809 102.966 43.9268L102.95 43.9426C103.407 43.5019 103.816 43.0218 104.178 42.5025L104.202 42.471C104.564 42.0303 104.902 41.5345 105.193 41.0151L105.217 40.9679C105.437 40.48 105.634 39.9056 105.768 39.3154L105.784 39.2524C105.972 38.6779 106.114 38.0091 106.177 37.3087V37.2693C106.193 37.0569 106.295 36.8837 106.295 36.6713L106.303 19.6577H133.776L133.689 36.624C133.689 36.8444 133.799 37.0254 133.807 37.2457C133.87 37.9776 134.012 38.6465 134.216 39.2918L134.201 39.2288C134.35 39.8898 134.547 40.4643 134.791 41.0151L134.767 40.9522C135.082 41.5267 135.413 42.0224 135.79 42.4789L135.775 42.4631C136.152 43.014 136.57 43.494 137.018 43.9347C137.435 44.2809 137.899 44.5957 138.387 44.879L138.435 44.9026C138.97 45.2646 139.591 45.5872 140.245 45.8391L140.308 45.8627C140.504 45.9335 140.646 46.083 140.851 46.1381C147.178 47.9402 152.679 50.2853 157.81 53.2127L157.44 53.0159C157.613 53.1104 157.802 53.071 157.975 53.1576C159.132 53.7557 160.493 54.1334 161.933 54.1963H161.957C162.051 54.1963 162.146 54.2672 162.24 54.2672L162.461 54.2042C163.979 54.1413 165.388 53.7399 166.639 53.0789L166.584 53.1025C167.049 52.8428 167.442 52.5831 167.812 52.2841L167.788 52.2998C168.323 52.0087 168.788 51.7018 169.213 51.3555L169.197 51.3712L181.245 39.3468L200.675 58.7842L188.627 70.7141C188.47 70.8715 188.415 71.084 188.265 71.2493C187.848 71.745 187.47 72.3038 187.148 72.894L187.124 72.9412C186.463 73.9091 186.038 75.0816 185.959 76.3565V76.3722C185.857 76.8129 185.802 77.3244 185.802 77.8438C185.802 78.6071 185.928 79.339 186.156 80.0236L186.14 79.9764C186.298 80.7161 186.51 81.3614 186.793 81.9752L186.77 81.9201C186.864 82.1169 186.856 82.3372 186.967 82.5339C189.697 87.287 192.043 92.7877 193.719 98.5717L193.853 99.1068C193.915 99.3429 194.073 99.516 194.152 99.7364C194.34 100.224 194.537 100.626 194.758 101.019L194.734 100.972C196.394 104.096 199.605 106.205 203.312 106.276L220.334 106.284L220.342 133.771Z" fill="#14213D"/>
<path d="M208.815 91.3405H198.508C197.771 89.3479 196.961 87.3958 196.069 85.464L203.411 78.1962C206.39 75.5686 208.255 71.7388 208.255 67.4767C208.255 63.7955 206.863 60.4385 204.573 57.9055L204.587 57.919L183.12 36.4531C180.601 34.17 177.244 32.7786 173.562 32.7786C169.293 32.7786 165.463 34.6564 162.842 37.6284L162.829 37.6419L155.527 44.9368C153.602 44.0519 151.656 43.2414 149.664 42.5051L149.718 32.1977C149.738 31.914 149.752 31.5831 149.752 31.2453C149.752 23.6262 143.78 17.4053 136.262 17H136.229H105.859C98.3006 17.3985 92.3226 23.6262 92.3226 31.2521C92.3226 31.5831 92.3362 31.914 92.3564 32.245V32.1977V42.4916C90.3638 43.2279 88.4116 44.0384 86.4798 44.93L79.2252 37.6081C76.5976 34.6158 72.7609 32.7313 68.4919 32.7313C64.8105 32.7313 61.4534 34.1228 58.9271 36.4126L58.9406 36.399L37.4672 57.8717C35.1841 60.3912 33.7926 63.7482 33.7926 67.4294C33.7926 71.705 35.6705 75.5349 38.6493 78.1489L38.6628 78.1624L45.9445 85.4505C45.0528 87.3891 44.2423 89.3411 43.4992 91.3405L33.1982 91.2932C32.9145 91.2729 32.5835 91.2594 32.2526 91.2594C24.6332 91.2594 18.4053 97.2372 18 104.755V104.789V135.15C18.3985 142.709 24.6332 148.693 32.2593 148.693C32.5903 148.693 32.9213 148.68 33.2455 148.66H33.1982H43.4992C44.2355 150.652 45.0461 152.604 45.9377 154.536L38.6155 161.77C35.6232 164.404 33.7454 168.241 33.7454 172.523C33.7454 176.205 35.1368 179.568 37.4267 182.101L37.4132 182.088L58.8866 203.554C61.1764 205.83 64.3309 207.235 67.8164 207.235C67.8637 207.235 67.9109 207.235 67.9582 207.235H67.9515C72.3623 207.147 76.3274 205.296 79.1779 202.358L79.1846 202.351L86.473 195.063C88.4116 195.955 90.3705 196.765 92.3699 197.508L92.3226 207.802C92.3024 208.086 92.2889 208.417 92.2889 208.748C92.2889 216.367 98.2668 222.595 105.785 223H105.819H136.188C143.74 222.595 149.718 216.374 149.718 208.755C149.718 208.417 149.704 208.086 149.684 207.762V207.809V197.502C151.684 196.759 153.636 195.948 155.574 195.056L162.795 202.345C165.652 205.283 169.611 207.134 174.008 207.228H174.022H174.035C174.076 207.228 174.13 207.228 174.177 207.228C177.656 207.228 180.81 205.83 183.113 203.574L204.573 182.115C206.836 179.825 208.228 176.677 208.228 173.199C208.228 173.138 208.228 173.077 208.228 173.01C208.14 168.612 206.303 164.668 203.378 161.817L196.076 154.516C196.961 152.591 197.771 150.645 198.508 148.653L208.809 148.7C209.092 148.72 209.416 148.734 209.747 148.734C217.374 148.734 223.601 142.756 224 135.231V135.198V104.836C223.595 97.2777 217.374 91.3 209.747 91.3C209.416 91.3 209.085 91.3135 208.755 91.3337H208.802L208.815 91.3405ZM207.127 131.82L192.523 131.746C192.347 131.746 192.199 131.834 192.023 131.847C191.395 131.908 190.814 132.023 190.26 132.205L190.314 132.192C188.22 132.651 186.498 133.968 185.511 135.752L185.491 135.785C185.167 136.265 184.876 136.812 184.654 137.393L184.633 137.447C184.579 137.609 184.451 137.724 184.404 137.893C182.85 143.323 180.844 148.045 178.338 152.449L178.507 152.125C178.412 152.293 178.419 152.489 178.331 152.665C178.135 153.09 177.973 153.597 177.851 154.117L177.845 154.171C177.689 154.658 177.575 155.225 177.52 155.806V155.84C177.507 156.022 177.493 156.231 177.493 156.441C177.493 157.852 177.906 159.17 178.615 160.277L178.594 160.25C178.898 160.845 179.243 161.351 179.635 161.817L179.628 161.804C179.743 161.932 179.777 162.094 179.898 162.216L190.226 172.557L173.549 189.221L163.308 178.893C163.173 178.751 162.984 178.71 162.842 178.582C162.437 178.244 161.978 177.934 161.491 177.67L161.451 177.65C160.134 176.914 158.553 176.481 156.878 176.481C156.864 176.481 156.851 176.481 156.837 176.481C156.324 176.536 155.858 176.63 155.412 176.752L155.473 176.738C154.784 176.873 154.176 177.076 153.609 177.339L153.656 177.319C153.507 177.393 153.338 177.387 153.19 177.468C149.096 179.805 144.361 181.818 139.39 183.27L138.917 183.385C138.735 183.439 138.613 183.567 138.437 183.635C137.87 183.857 137.377 184.114 136.924 184.418L136.951 184.398C136.445 184.675 136.012 184.972 135.607 185.31L135.621 185.296C135.263 185.647 134.932 186.039 134.641 186.451L134.621 186.478C133.925 187.241 133.432 188.194 133.229 189.254L133.223 189.288C133.061 189.788 132.932 190.369 132.878 190.97V191.004C132.865 191.179 132.777 191.328 132.777 191.51L132.77 206.114H109.189L109.264 191.551C109.264 191.362 109.169 191.2 109.156 191.017C109.101 190.396 108.98 189.822 108.804 189.275L108.818 189.329C108.358 187.214 107.028 185.479 105.231 184.486L105.19 184.465C104.718 184.148 104.177 183.864 103.603 183.641L103.549 183.621C103.387 183.567 103.265 183.439 103.096 183.391C97.6522 181.838 92.9171 179.825 88.4995 177.312L88.8237 177.481C88.6683 177.393 88.4859 177.4 88.3306 177.326C87.8442 177.103 87.2768 176.914 86.6824 176.792L86.6284 176.785C86.007 176.59 85.2909 176.481 84.5479 176.481C83.0551 176.481 81.6704 176.927 80.5153 177.697L80.5423 177.684C80.029 177.954 79.5899 178.251 79.1846 178.589L79.1982 178.575C79.0563 178.704 78.8739 178.744 78.7388 178.879L68.4108 189.207L51.7265 172.53L62.0748 162.29C62.2099 162.155 62.2572 161.973 62.3788 161.838C62.7368 161.412 63.061 160.933 63.338 160.426L63.3582 160.385C63.6082 159.994 63.8378 159.548 64.027 159.075L64.0472 159.021C64.3039 158.075 64.466 156.988 64.493 155.867V155.846C64.439 155.286 64.3377 154.779 64.1958 154.286L64.2093 154.347C64.0742 153.712 63.8919 153.151 63.6487 152.624L63.669 152.672C63.5879 152.503 63.5947 152.32 63.5001 152.158C61.1562 148.072 59.1433 143.344 57.7045 138.372L57.5897 137.913C57.5424 137.737 57.4073 137.609 57.3465 137.44C57.1168 136.859 56.8602 136.36 56.5494 135.9L56.5697 135.934C56.2995 135.434 56.0023 135.002 55.6713 134.603L55.6848 134.617C55.3336 134.259 54.9486 133.935 54.5433 133.644L54.5162 133.624C54.111 133.279 53.6516 132.969 53.1653 132.705L53.1248 132.685C52.7397 132.509 52.2737 132.354 51.8008 132.239L51.7468 132.226C51.2267 132.05 50.6187 131.922 49.9973 131.868H49.9635C49.7879 131.854 49.6461 131.766 49.4704 131.766L34.8666 131.76V108.173L49.4704 108.247C50.5512 108.234 51.5712 108.011 52.5101 107.626L52.456 107.646C52.8208 107.484 53.1248 107.322 53.4152 107.139L53.3814 107.16C53.9894 106.842 54.5163 106.484 54.9958 106.079L54.9823 106.086C55.2728 105.822 55.5362 105.552 55.7794 105.262L55.7929 105.248C56.1712 104.809 56.5089 104.316 56.7859 103.796L56.8061 103.749C56.9885 103.431 57.1709 103.06 57.3195 102.675L57.3397 102.621C57.4073 102.431 57.5356 102.283 57.5897 102.094C59.1433 96.6563 61.1494 91.9214 63.6622 87.5107L63.4933 87.8349C63.5879 87.6728 63.5811 87.4836 63.6622 87.3215C63.8716 86.869 64.0472 86.3286 64.1688 85.7747L64.1756 85.7207C64.3107 85.1398 64.3917 84.4711 64.3917 83.7822C64.3917 81.641 63.6284 79.6821 62.3653 78.1489L62.3788 78.1624C62.264 78.0273 62.2234 77.8584 62.0951 77.7368L51.7806 67.4091L68.4581 50.7322L78.7118 61.0734C79.0833 61.3773 79.4954 61.661 79.9277 61.8974L79.9682 61.9177C80.2519 62.1406 80.5694 62.3567 80.9003 62.5526L80.9409 62.5729C82.0216 63.1673 83.305 63.532 84.6628 63.5726H84.6763L84.71 63.5793C84.7911 63.5793 84.8654 63.5185 84.9397 63.5185C86.1961 63.4645 87.3647 63.1403 88.4049 62.6067L88.3576 62.6269C88.5062 62.5526 88.6751 62.5864 88.8304 62.5053C92.9171 60.1683 97.6454 58.1487 102.617 56.7099L103.083 56.5951C103.252 56.5478 103.367 56.4195 103.529 56.3655C104.143 56.1291 104.677 55.8521 105.17 55.5211L105.143 55.5414C105.609 55.2847 106.008 55.0078 106.379 54.7038L106.366 54.7174C106.758 54.3391 107.109 53.9271 107.42 53.4813L107.44 53.4543C107.751 53.076 108.041 52.6505 108.291 52.2047L108.311 52.1641C108.5 51.7454 108.669 51.2523 108.784 50.7457L108.798 50.6917C108.96 50.1986 109.081 49.6244 109.135 49.0233V48.9895C109.149 48.8071 109.237 48.6585 109.237 48.4762L109.243 33.8728H132.824L132.75 48.4356C132.75 48.6248 132.844 48.7801 132.851 48.9692C132.905 49.5974 133.027 50.1716 133.202 50.7254L133.189 50.6714C133.317 51.2388 133.486 51.7318 133.696 52.2047L133.675 52.1506C133.946 52.6437 134.229 53.0693 134.553 53.461L134.54 53.4475C134.864 53.9203 135.222 54.3324 135.607 54.7106C135.965 55.0078 136.364 55.278 136.783 55.5211L136.823 55.5414C137.282 55.8521 137.816 56.1291 138.377 56.3452L138.431 56.3655C138.6 56.4263 138.721 56.5546 138.897 56.6019C144.328 58.1487 149.049 60.1615 153.453 62.6742L153.136 62.5053C153.284 62.5864 153.447 62.5526 153.595 62.6269C154.588 63.1403 155.757 63.4645 156.993 63.5185H157.013C157.094 63.5185 157.175 63.5793 157.256 63.5793L157.445 63.5253C158.749 63.4712 159.958 63.1268 161.032 62.5594L160.985 62.5796C161.383 62.3567 161.721 62.1338 162.039 61.8772L162.018 61.8907C162.478 61.6408 162.876 61.3773 163.241 61.0801L163.227 61.0936L173.569 50.7727L190.246 67.4564L179.905 77.6963C179.77 77.8314 179.723 78.0138 179.594 78.1556C179.236 78.5812 178.912 79.0607 178.635 79.5673L178.615 79.6078C178.047 80.4387 177.683 81.4451 177.615 82.5393V82.5528C177.527 82.9311 177.48 83.3701 177.48 83.8159C177.48 84.4711 177.588 85.0993 177.784 85.6869L177.77 85.6464C177.906 86.2813 178.088 86.8352 178.331 87.3621L178.311 87.3148C178.392 87.4836 178.385 87.6728 178.48 87.8416C180.824 91.9214 182.836 96.6428 184.275 101.607L184.39 102.067C184.444 102.269 184.579 102.418 184.647 102.607C184.809 103.026 184.978 103.37 185.167 103.708L185.147 103.668C186.572 106.349 189.328 108.159 192.509 108.22L207.12 108.227L207.127 131.82Z" fill="#14213D"/>
<path d="M194.174 95.7924H185.468C184.846 94.1094 184.161 92.4606 183.408 90.8288L189.61 84.69C192.126 82.4706 193.701 79.2357 193.701 75.6356C193.701 72.5263 192.525 69.6907 190.591 67.5513L190.602 67.5627L172.47 49.4312C170.342 47.5029 167.507 46.3276 164.397 46.3276C160.791 46.3276 157.556 47.9136 155.343 50.424L155.331 50.4354L149.164 56.5971C147.538 55.8497 145.894 55.1651 144.211 54.5432L144.257 45.8369C144.274 45.5973 144.285 45.3177 144.285 45.0325C144.285 38.5969 139.242 33.3423 132.892 33H132.863H107.211C100.827 33.3366 95.7774 38.5969 95.7774 45.0382C95.7774 45.3177 95.7888 45.5973 95.8059 45.8768V45.8369V54.5318C94.1228 55.1537 92.4739 55.8383 90.8421 56.5914L84.7145 50.4068C82.495 47.8794 79.2543 46.2876 75.6485 46.2876C72.539 46.2876 69.7034 47.4629 67.5695 49.397L67.5809 49.3856L49.4432 67.5227C47.5147 69.6508 46.3394 72.4863 46.3394 75.5957C46.3394 79.2072 47.9255 82.4421 50.4417 84.65L50.4531 84.6614L56.6036 90.8174C55.8504 92.4548 55.1658 94.1037 54.5382 95.7924L45.8373 95.7525C45.5977 95.7354 45.3181 95.724 45.0386 95.724C38.6028 95.724 33.3423 100.773 33 107.123V107.152V132.797C33.3366 139.181 38.6028 144.236 45.0443 144.236C45.3238 144.236 45.6034 144.225 45.8773 144.208H45.8373H54.5382C55.1601 145.891 55.8447 147.539 56.5979 149.171L50.4131 155.282C47.8856 157.507 46.2995 160.747 46.2995 164.364C46.2995 167.474 47.4748 170.315 49.409 172.454L49.3975 172.443L67.5353 190.574C69.4694 192.497 72.1339 193.684 75.0779 193.684C75.1179 193.684 75.1578 193.684 75.1977 193.684H75.192C78.9177 193.61 82.2668 192.046 84.6745 189.565L84.6802 189.559L90.8364 183.403C92.4739 184.156 94.1285 184.841 95.8173 185.468L95.7774 194.163C95.7603 194.403 95.7489 194.682 95.7489 194.962C95.7489 201.397 100.798 206.658 107.148 207H107.177H132.829C139.207 206.658 144.257 201.403 144.257 194.968C144.257 194.682 144.245 194.403 144.228 194.129V194.169V185.463C145.917 184.835 147.566 184.15 149.203 183.397L155.303 189.553C157.716 192.035 161.059 193.598 164.774 193.678H164.785H164.797C164.831 193.678 164.876 193.678 164.916 193.678C167.855 193.678 170.519 192.497 172.465 190.592L190.591 172.466C192.502 170.532 193.678 167.873 193.678 164.935C193.678 164.884 193.678 164.832 193.678 164.775C193.604 161.061 192.052 157.729 189.581 155.321L183.414 149.154C184.161 147.528 184.846 145.885 185.468 144.202L194.168 144.242C194.408 144.259 194.682 144.27 194.961 144.27C201.403 144.27 206.663 139.221 207 132.865V132.837V107.192C206.658 100.807 201.403 95.7582 194.961 95.7582C194.682 95.7582 194.402 95.7696 194.123 95.7867H194.163L194.174 95.7924ZM192.748 129.984L180.412 129.922C180.264 129.922 180.139 129.996 179.99 130.007C179.46 130.058 178.969 130.155 178.501 130.309L178.547 130.298C176.778 130.686 175.323 131.799 174.49 133.305L174.473 133.333C174.199 133.738 173.954 134.2 173.766 134.691L173.748 134.737C173.703 134.874 173.594 134.971 173.554 135.113C172.242 139.7 170.548 143.688 168.431 147.408L168.574 147.134C168.494 147.277 168.499 147.442 168.425 147.591C168.26 147.95 168.123 148.378 168.02 148.817L168.014 148.863C167.883 149.274 167.786 149.753 167.741 150.244V150.272C167.729 150.426 167.718 150.603 167.718 150.78C167.718 151.972 168.066 153.085 168.665 154.021L168.648 153.998C168.905 154.5 169.196 154.928 169.526 155.321L169.521 155.31C169.618 155.418 169.646 155.555 169.749 155.658L178.473 164.393L164.386 178.468L155.736 169.744C155.622 169.625 155.462 169.59 155.343 169.482C155 169.197 154.612 168.934 154.201 168.712L154.167 168.695C153.055 168.073 151.72 167.708 150.305 167.708C150.293 167.708 150.282 167.708 150.27 167.708C149.837 167.753 149.443 167.833 149.067 167.936L149.118 167.924C148.536 168.039 148.022 168.21 147.543 168.432L147.583 168.415C147.458 168.478 147.315 168.472 147.189 168.541C143.732 170.515 139.732 172.215 135.533 173.441L135.134 173.538C134.98 173.584 134.877 173.693 134.729 173.75C134.249 173.938 133.833 174.155 133.451 174.411L133.473 174.394C133.046 174.628 132.68 174.879 132.338 175.164L132.35 175.153C132.047 175.45 131.768 175.781 131.522 176.129L131.505 176.151C130.917 176.796 130.501 177.601 130.33 178.496L130.324 178.525C130.187 178.947 130.079 179.438 130.033 179.946V179.974C130.022 180.122 129.948 180.248 129.948 180.402L129.942 192.737H110.024L110.087 180.436C110.087 180.276 110.007 180.139 109.995 179.985C109.95 179.461 109.847 178.976 109.699 178.513L109.71 178.559C109.322 176.773 108.198 175.307 106.681 174.468L106.646 174.451C106.247 174.183 105.791 173.944 105.306 173.755L105.26 173.738C105.123 173.693 105.02 173.584 104.878 173.544C100.279 172.232 96.2795 170.532 92.5481 168.409L92.8219 168.552C92.6907 168.478 92.5367 168.484 92.4054 168.421C91.9947 168.233 91.5154 168.073 91.0133 167.97L90.9677 167.964C90.4428 167.799 89.838 167.708 89.2104 167.708C87.9495 167.708 86.7798 168.084 85.8042 168.735L85.827 168.723C85.3934 168.951 85.0226 169.202 84.6802 169.488L84.6916 169.476C84.5718 169.585 84.4178 169.619 84.3037 169.733L75.58 178.456L61.4875 164.37L70.2283 155.721C70.3424 155.607 70.3823 155.453 70.485 155.339C70.7874 154.979 71.0613 154.574 71.2952 154.146L71.3123 154.112C71.5234 153.781 71.7174 153.404 71.8771 153.005L71.8943 152.959C72.1111 152.161 72.248 151.242 72.2708 150.295V150.278C72.2252 149.804 72.1396 149.377 72.0198 148.96L72.0312 149.011C71.9171 148.475 71.763 148.002 71.5576 147.557L71.5747 147.596C71.5063 147.454 71.512 147.3 71.4321 147.163C69.4523 143.711 67.7521 139.717 66.5368 135.518L66.4398 135.13C66.3999 134.982 66.2858 134.874 66.2344 134.731C66.0404 134.24 65.8236 133.818 65.5612 133.43L65.5783 133.459C65.3501 133.037 65.099 132.671 64.8195 132.335L64.8309 132.346C64.5342 132.044 64.209 131.77 63.8666 131.525L63.8438 131.508C63.5015 131.217 63.1135 130.954 62.7027 130.732L62.6685 130.715C62.3433 130.566 61.9496 130.435 61.5502 130.338L61.5046 130.327C61.0653 130.178 60.5518 130.07 60.0269 130.024H59.9983C59.85 130.013 59.7302 129.939 59.5818 129.939L47.2466 129.933V110.01L59.5818 110.073C60.4947 110.061 61.3562 109.873 62.1493 109.548L62.1037 109.565C62.4117 109.428 62.6685 109.291 62.9138 109.137L62.8853 109.154C63.3988 108.886 63.8438 108.584 64.2489 108.241L64.2375 108.247C64.4828 108.025 64.7053 107.796 64.9107 107.551L64.9222 107.54C65.2417 107.169 65.5269 106.752 65.7609 106.313L65.778 106.273C65.932 106.005 66.0861 105.691 66.2116 105.366L66.2287 105.32C66.2858 105.161 66.3942 105.035 66.4398 104.875C67.7521 100.283 69.4466 96.2831 71.569 92.5575L71.4264 92.8314C71.5063 92.6945 71.5006 92.5347 71.569 92.3978C71.7459 92.0155 71.8943 91.5591 71.997 91.0913L72.0027 91.0456C72.1168 90.555 72.1852 89.9902 72.1852 89.4082C72.1852 87.5997 71.5405 85.9451 70.4736 84.65L70.485 84.6614C70.388 84.5473 70.3538 84.4047 70.2454 84.302L61.5331 75.5786L75.6199 61.4922L84.2808 70.227C84.5947 70.4838 84.9427 70.7234 85.3078 70.9231L85.3421 70.9402C85.5817 71.1285 85.8499 71.311 86.1294 71.4765L86.1637 71.4936C87.0765 71.9957 88.1606 72.3038 89.3074 72.338H89.3188L89.3473 72.3437C89.4158 72.3437 89.4785 72.2924 89.5413 72.2924C90.6025 72.2467 91.5896 71.9729 92.4682 71.5221L92.4283 71.5392C92.5538 71.4765 92.6964 71.505 92.8277 71.4366C96.2795 69.4625 100.273 67.7566 104.473 66.5414L104.866 66.4444C105.009 66.4045 105.106 66.2961 105.243 66.2504C105.762 66.0508 106.213 65.8168 106.629 65.5373L106.606 65.5544C107 65.3376 107.337 65.1037 107.65 64.8469L107.639 64.8584C107.97 64.5389 108.267 64.1908 108.529 63.8143L108.546 63.7915C108.809 63.472 109.054 63.1125 109.265 62.736L109.282 62.7017C109.442 62.348 109.585 61.9315 109.682 61.5036L109.693 61.458C109.83 61.0415 109.933 60.5566 109.978 60.0488V60.0203C109.99 59.8662 110.064 59.7407 110.064 59.5867L110.07 47.2518H129.987L129.925 59.5524C129.925 59.7122 130.005 59.8434 130.01 60.0031C130.056 60.5337 130.159 61.0187 130.307 61.4865L130.296 61.4409C130.404 61.9201 130.547 62.3366 130.723 62.736L130.706 62.6903C130.935 63.1068 131.174 63.4663 131.448 63.7972L131.437 63.7858C131.711 64.1851 132.013 64.5332 132.338 64.8526C132.641 65.1037 132.977 65.3319 133.331 65.5373L133.365 65.5544C133.753 65.8168 134.204 66.0508 134.677 66.2333L134.723 66.2504C134.866 66.3018 134.968 66.4102 135.117 66.4501C139.704 67.7566 143.692 69.4568 147.412 71.5792L147.144 71.4366C147.269 71.505 147.406 71.4765 147.532 71.5392C148.371 71.9729 149.358 72.2467 150.402 72.2924H150.419C150.487 72.2924 150.556 72.3437 150.624 72.3437L150.784 72.2981C151.885 72.2524 152.906 71.9614 153.814 71.4822L153.774 71.4993C154.11 71.311 154.395 71.1228 154.664 70.906L154.647 70.9174C155.035 70.7063 155.371 70.4838 155.679 70.2327L155.668 70.2441L164.403 61.5265L178.49 75.6185L169.755 84.2678C169.641 84.3819 169.601 84.5359 169.492 84.6557C169.19 85.0151 168.916 85.4202 168.682 85.8481L168.665 85.8824C168.186 86.5841 167.878 87.4342 167.82 88.3585V88.3699C167.746 88.6894 167.706 89.0602 167.706 89.4368C167.706 89.9902 167.798 90.5208 167.963 91.0171L167.952 90.9829C168.066 91.5192 168.22 91.987 168.425 92.432L168.408 92.3921C168.477 92.5347 168.471 92.6945 168.551 92.8371C170.531 96.2831 172.231 100.271 173.446 104.464L173.543 104.852C173.589 105.024 173.703 105.149 173.76 105.309C173.897 105.663 174.039 105.954 174.199 106.239L174.182 106.205C175.386 108.47 177.714 109.999 180.401 110.05L192.742 110.056L192.748 129.984Z" fill="#FFAC23"/>
<path d="M183.091 99.4097H175.685C175.156 97.9781 174.574 96.5756 173.933 95.1877L179.208 89.9662C181.348 88.0784 182.688 85.3269 182.688 82.2648C182.688 79.62 181.688 77.2082 180.043 75.3884L180.053 75.3981L164.63 59.976C162.82 58.3358 160.408 57.3361 157.763 57.3361C154.696 57.3361 151.944 58.6852 150.062 60.8204L150.052 60.8301L144.806 66.0711C143.423 65.4354 142.025 64.853 140.593 64.3241L140.632 56.9187C140.647 56.7149 140.657 56.4771 140.657 56.2345C140.657 50.7606 136.367 46.2912 130.965 46H130.941H109.122C103.692 46.2863 99.3969 50.7606 99.3969 56.2394C99.3969 56.4771 99.4066 56.7149 99.4211 56.9527V56.9187V64.3144C97.9895 64.8433 96.587 65.4257 95.1991 66.0662L89.987 60.8058C88.0992 58.656 85.3428 57.3021 82.2757 57.3021C79.6308 57.3021 77.2189 58.3018 75.4039 59.9469L75.4136 59.9372L59.9862 75.3642C58.3459 77.1742 57.3462 79.5861 57.3462 82.2308C57.3462 85.3026 58.6953 88.0542 60.8354 89.9322L60.8451 89.9419L66.0766 95.178C65.436 96.5708 64.8537 97.9732 64.3198 99.4097L56.9191 99.3757C56.7153 99.3611 56.4775 99.3514 56.2397 99.3514C50.7656 99.3514 46.2912 103.646 46 109.047V109.072V130.885C46.2863 136.315 50.7656 140.615 56.2445 140.615C56.4823 140.615 56.7201 140.605 56.9531 140.59H56.9191H64.3198C64.8488 142.022 65.4312 143.424 66.0717 144.812L60.8112 150.01C58.6613 151.902 57.3122 154.659 57.3122 157.735C57.3122 160.38 58.3119 162.797 59.957 164.616L59.9473 164.607L75.3748 180.029C77.02 181.664 79.2863 182.674 81.7904 182.674C81.8244 182.674 81.8583 182.674 81.8923 182.674H81.8875C85.0564 182.611 87.9051 181.281 89.953 179.17L89.9579 179.165L95.1942 173.929C96.587 174.569 97.9944 175.152 99.4308 175.686L99.3969 183.081C99.3823 183.285 99.3726 183.523 99.3726 183.761C99.3726 189.235 103.667 193.709 109.069 194H109.093H130.912C136.337 193.709 140.632 189.239 140.632 183.766C140.632 183.523 140.623 183.285 140.608 183.052V183.086V175.681C142.044 175.147 143.447 174.565 144.84 173.924L150.028 179.16C152.08 181.271 154.924 182.601 158.083 182.669H158.093H158.103C158.132 182.669 158.171 182.669 158.205 182.669C160.704 182.669 162.97 181.664 164.625 180.043L180.043 164.626C181.669 162.981 182.668 160.72 182.668 158.22C182.668 158.177 182.668 158.133 182.668 158.085C182.605 154.925 181.285 152.091 179.184 150.044L173.938 144.798C174.574 143.415 175.156 142.017 175.685 140.585L183.086 140.619C183.29 140.634 183.523 140.644 183.76 140.644C189.239 140.644 193.714 136.349 194 130.943V130.919V109.106C193.709 103.675 189.239 99.3806 183.76 99.3806C183.523 99.3806 183.285 99.3903 183.047 99.4048H183.081L183.091 99.4097ZM181.877 128.492L171.385 128.439C171.259 128.439 171.152 128.502 171.026 128.512C170.575 128.555 170.158 128.638 169.76 128.769L169.798 128.759C168.294 129.089 167.056 130.036 166.348 131.317L166.333 131.341C166.1 131.685 165.892 132.079 165.732 132.496L165.717 132.535C165.678 132.651 165.586 132.734 165.552 132.855C164.436 136.757 162.995 140.149 161.194 143.313L161.315 143.08C161.248 143.201 161.252 143.342 161.189 143.468C161.049 143.774 160.932 144.138 160.845 144.511L160.84 144.55C160.728 144.9 160.646 145.307 160.607 145.725V145.749C160.597 145.88 160.588 146.03 160.588 146.181C160.588 147.195 160.884 148.141 161.393 148.937L161.379 148.918C161.597 149.345 161.844 149.709 162.126 150.044L162.121 150.034C162.204 150.126 162.228 150.243 162.315 150.33L169.735 157.759L157.753 169.731L150.396 162.311C150.299 162.209 150.163 162.18 150.062 162.088C149.77 161.846 149.44 161.622 149.091 161.433L149.062 161.418C148.115 160.89 146.98 160.579 145.776 160.579C145.767 160.579 145.757 160.579 145.747 160.579C145.378 160.618 145.044 160.686 144.723 160.773L144.767 160.763C144.272 160.86 143.835 161.006 143.428 161.195L143.462 161.181C143.355 161.234 143.233 161.229 143.127 161.287C140.186 162.966 136.784 164.413 133.212 165.456L132.872 165.538C132.741 165.577 132.654 165.669 132.528 165.718C132.12 165.878 131.766 166.063 131.441 166.281L131.46 166.266C131.096 166.465 130.786 166.679 130.494 166.922L130.504 166.912C130.247 167.164 130.009 167.446 129.801 167.742L129.786 167.761C129.286 168.309 128.932 168.994 128.786 169.756L128.781 169.78C128.665 170.139 128.573 170.556 128.534 170.988V171.012C128.524 171.139 128.461 171.245 128.461 171.376L128.456 181.868H111.515L111.568 171.405C111.568 171.27 111.5 171.153 111.49 171.022C111.452 170.576 111.364 170.163 111.238 169.77L111.248 169.809C110.918 168.29 109.962 167.043 108.671 166.329L108.642 166.315C108.302 166.087 107.914 165.883 107.501 165.723L107.462 165.708C107.346 165.669 107.259 165.577 107.137 165.543C103.226 164.427 99.8239 162.981 96.6501 161.176L96.883 161.297C96.7714 161.234 96.6404 161.239 96.5288 161.186C96.1794 161.025 95.7717 160.89 95.3447 160.802L95.3058 160.797C94.8594 160.657 94.3449 160.579 93.8111 160.579C92.7386 160.579 91.7438 160.899 90.9139 161.452L90.9333 161.443C90.5645 161.637 90.2491 161.85 89.9579 162.093L89.9676 162.083C89.8657 162.175 89.7347 162.205 89.6376 162.302L82.2175 169.722L70.2307 157.74L77.6654 150.383C77.7625 150.286 77.7964 150.155 77.8838 150.058C78.141 149.752 78.3739 149.408 78.5729 149.044L78.5875 149.015C78.767 148.733 78.932 148.413 79.0679 148.073L79.0825 148.034C79.2669 147.355 79.3833 146.574 79.4028 145.768V145.754C79.3639 145.351 79.2911 144.987 79.1892 144.633L79.1989 144.676C79.1019 144.22 78.9708 143.817 78.7961 143.439L78.8107 143.473C78.7525 143.352 78.7573 143.221 78.6894 143.104C77.0054 140.168 75.5592 136.771 74.5256 133.2L74.4431 132.87C74.4091 132.743 74.312 132.651 74.2684 132.53C74.1034 132.113 73.9189 131.753 73.6957 131.423L73.7103 131.448C73.5161 131.089 73.3026 130.778 73.0648 130.492L73.0745 130.501C72.8222 130.244 72.5456 130.011 72.2544 129.803L72.235 129.788C71.9438 129.541 71.6138 129.317 71.2644 129.128L71.2353 129.114C70.9587 128.987 70.6238 128.876 70.2841 128.793L70.2453 128.784C69.8716 128.657 69.4348 128.565 68.9884 128.526H68.9641C68.8379 128.517 68.736 128.454 68.6098 128.454L58.1178 128.449V111.503L68.6098 111.556C69.3863 111.546 70.1191 111.386 70.7937 111.11L70.7548 111.124C71.0169 111.008 71.2353 110.891 71.4439 110.76L71.4197 110.775C71.8564 110.547 72.235 110.29 72.5795 109.998L72.5698 110.003C72.7785 109.814 72.9678 109.62 73.1425 109.411L73.1522 109.402C73.4239 109.086 73.6666 108.732 73.8656 108.358L73.8801 108.324C74.0111 108.096 74.1422 107.829 74.2489 107.553L74.2635 107.514C74.312 107.378 74.4042 107.271 74.4431 107.135C75.5592 103.229 77.0006 99.827 78.8059 96.6581L78.6845 96.8911C78.7525 96.7746 78.7476 96.6387 78.8059 96.5223C78.9563 96.1971 79.0825 95.8089 79.1698 95.411L79.1747 95.3722C79.2717 94.9548 79.33 94.4744 79.33 93.9794C79.33 92.4411 78.7816 91.0338 77.8741 89.9322L77.8838 89.9419C77.8013 89.8448 77.7722 89.7235 77.68 89.6362L70.2695 82.2163L82.2514 70.2348L89.6182 77.6644C89.8851 77.8827 90.1811 78.0866 90.4917 78.2564L90.5208 78.271C90.7247 78.4311 90.9527 78.5864 91.1905 78.7271L91.2197 78.7417C91.9961 79.1687 92.9182 79.4308 93.8936 79.4599H93.9033L93.9276 79.4648C93.9858 79.4648 94.0392 79.4211 94.0926 79.4211C94.9952 79.3823 95.8348 79.1493 96.5822 78.766L96.5482 78.7805C96.6549 78.7271 96.7763 78.7514 96.8879 78.6932C99.8239 77.0141 103.221 75.5631 106.793 74.5295L107.128 74.447C107.249 74.413 107.331 74.3208 107.448 74.282C107.889 74.1121 108.273 73.9132 108.627 73.6754L108.608 73.6899C108.943 73.5055 109.229 73.3066 109.496 73.0882L109.486 73.0979C109.768 72.8262 110.02 72.5301 110.243 72.2099L110.258 72.1904C110.481 71.9187 110.69 71.613 110.869 71.2927L110.884 71.2636C111.02 70.9627 111.141 70.6084 111.223 70.2445L111.233 70.2057C111.35 69.8514 111.437 69.4389 111.476 69.007V68.9828C111.486 68.8517 111.549 68.745 111.549 68.6139L111.553 58.1222H128.495L128.442 68.5848C128.442 68.7207 128.51 68.8323 128.514 68.9682C128.553 69.4195 128.641 69.832 128.767 70.2299L128.757 70.1911C128.849 70.5987 128.971 70.953 129.121 71.2927L129.107 71.2539C129.301 71.6081 129.504 71.9138 129.737 72.1953L129.728 72.1856C129.961 72.5253 130.218 72.8213 130.494 73.0931C130.752 73.3066 131.038 73.5007 131.339 73.6754L131.368 73.6899C131.698 73.9132 132.081 74.1121 132.484 74.2674L132.523 74.282C132.644 74.3257 132.732 74.4179 132.858 74.4518C136.76 75.5631 140.152 77.0092 143.316 78.8145L143.088 78.6932C143.195 78.7514 143.311 78.7271 143.418 78.7805C144.131 79.1493 144.971 79.3823 145.859 79.4211H145.873C145.932 79.4211 145.99 79.4648 146.048 79.4648L146.184 79.4259C147.121 79.3871 147.989 79.1396 148.761 78.732L148.727 78.7465C149.013 78.5864 149.256 78.4263 149.484 78.2419L149.469 78.2516C149.799 78.072 150.086 77.8827 150.348 77.6692L150.338 77.6789L157.768 70.2639L169.75 82.2502L162.32 89.6071C162.223 89.7041 162.189 89.8351 162.097 89.937C161.84 90.2428 161.607 90.5873 161.408 90.9513L161.393 90.9804C160.985 91.5773 160.723 92.3004 160.675 93.0865V93.0962C160.612 93.368 160.578 93.6834 160.578 94.0037C160.578 94.4744 160.655 94.9257 160.796 95.3479L160.787 95.3188C160.884 95.7749 161.015 96.1729 161.189 96.5514L161.175 96.5174C161.233 96.6387 161.228 96.7746 161.296 96.8959C162.98 99.827 164.426 103.219 165.46 106.786L165.542 107.116C165.581 107.261 165.678 107.368 165.727 107.504C165.843 107.805 165.965 108.052 166.1 108.295L166.086 108.266C167.11 110.193 169.09 111.493 171.376 111.537L181.873 111.542L181.877 128.492Z" fill="#FFAC23"/>
<circle cx="123" cy="119" r="67" fill="#FFAC23"/>
<path d="M135.757 109.967C135.363 109.39 134.622 109.125 133.954 109.348C133.316 109.559 132.874 110.167 132.873 110.84C132.871 112.2 134.557 112.916 135.537 111.978C136.082 111.455 136.172 110.596 135.757 109.967C135.814 110.053 135.698 109.881 135.757 109.967Z" fill="#14213D"/>
<path d="M157.04 119.189L150.112 109.9C149.815 109.502 149.347 109.267 148.85 109.267H139.318C138.448 109.267 137.743 109.972 137.743 110.841C137.743 111.711 138.448 112.416 139.318 112.416H148.06L153.814 120.13L148.06 127.845H105.712V112.416H129.43C130.3 112.416 131.004 111.711 131.004 110.841C131.004 109.972 130.3 109.267 129.43 109.267H123.77V104.544H135.215C136.085 104.544 136.789 103.839 136.789 102.969V84.3915C136.789 83.522 136.085 82.8171 135.215 82.8171H123.77V75.5745C123.77 74.7049 123.065 74 122.195 74H117.157C116.287 74 115.582 74.7049 115.582 75.5745V82.8171H90.5018C90.0046 82.8171 89.5367 83.0518 89.2397 83.4502L82.3124 92.7392C81.8959 93.2976 81.8959 94.0634 82.3124 94.6219L89.2399 103.911C89.5369 104.309 90.0048 104.544 90.502 104.544H115.582V109.267H104.137C103.267 109.267 102.563 109.972 102.563 110.841V129.419C102.563 130.289 103.267 130.994 104.137 130.994H115.582V163.426C115.582 164.296 116.287 165.001 117.157 165.001H122.195C123.065 165.001 123.77 164.296 123.77 163.426V130.994H148.85C149.347 130.994 149.815 130.759 150.112 130.361L157.04 121.072C157.456 120.513 157.456 119.748 157.04 119.189ZM118.731 77.149H120.621V82.8171H118.731V77.149ZM85.5386 93.6805L91.2917 85.966H133.64V101.395H91.2917L85.5386 93.6805ZM118.731 104.544H120.621V109.267H118.731V104.544ZM120.621 161.851H118.731V130.994H120.621V161.851Z" fill="#14213D"/>
</svg>
